<?xml version="1.0" standalone="no"?>
<!DOCTYPE svg PUBLIC "-//W3C//DTD SVG 20010904//EN"
 "http://www.w3.org/TR/2001/REC-SVG-20010904/DTD/svg10.dtd">
<svg version="1.0" xmlns="http://www.w3.org/2000/svg"
 width="130.000000pt" height="130.000000pt" viewBox="0 0 130.000000 130.000000"
 preserveAspectRatio="xMidYMid meet">

<g transform="translate(0.000000,130.000000) scale(0.100000,-0.100000)"
fill="#000000" stroke="none">
<path d="M508 1235 c-213 -52 -386 -225 -442 -441 -20 -79 -20 -219 0 -297 56
-215 240 -396 452 -442 l32 -7 0 216 0 216 -75 0 -75 0 0 85 0 85 75 0 75 0 0
91 c0 116 14 164 65 214 48 49 98 65 196 65 122 0 120 1 117 -89 l-3 -76 -62
-3 c-86 -4 -103 -26 -103 -128 l0 -74 80 0 c92 0 89 5 68 -106 l-11 -64 -69 0
-68 0 0 -215 c0 -121 4 -215 9 -215 5 0 42 11 81 24 176 60 313 198 376 381
24 69 28 95 28 190 -1 92 -5 123 -27 190 -83 250 -315 417 -577 414 -47 0
-111 -7 -142 -14z"/>
</g>
</svg>
